<svg width="119" height="110" viewBox="0 0 119 110" fill="none" xmlns="http://www.w3.org/2000/svg">
<circle cx="59" cy="55" r="55" fill="white"/>
<path d="M15.1604 55V32.6H19.2564V41.656L27.5444 32.6H32.6004L24.3444 41.496L32.8244 55H27.8004L21.4004 44.632L19.2564 46.968V55H15.1604ZM41.9326 55.384C40.3326 55.384 38.914 55.0427 37.6766 54.36C36.4393 53.6773 35.4686 52.7173 34.7646 51.48C34.0606 50.2427 33.7086 48.8133 33.7086 47.192C33.7086 45.5493 34.05 44.088 34.7326 42.808C35.4366 41.528 36.3966 40.536 37.6126 39.832C38.85 39.1067 40.3006 38.744 41.9646 38.744C43.522 38.744 44.898 39.0853 46.0926 39.768C47.2873 40.4507 48.2153 41.3893 48.8766 42.584C49.5593 43.7573 49.9006 45.0693 49.9006 46.52C49.9006 46.7547 49.89 47 49.8686 47.256C49.8686 47.512 49.858 47.7787 49.8366 48.056H37.7726C37.858 49.2933 38.2846 50.264 39.0526 50.968C39.842 51.672 40.7913 52.024 41.9006 52.024C42.7326 52.024 43.426 51.8427 43.9806 51.48C44.5566 51.096 44.9833 50.6053 45.2606 50.008H49.4206C49.122 51.0107 48.6206 51.928 47.9166 52.76C47.234 53.5707 46.3806 54.2107 45.3566 54.68C44.354 55.1493 43.2126 55.384 41.9326 55.384ZM41.9646 42.072C40.962 42.072 40.0766 42.36 39.3086 42.936C38.5406 43.4907 38.05 44.344 37.8366 45.496H45.7406C45.6766 44.4507 45.2926 43.6187 44.5886 43C43.8846 42.3813 43.01 42.072 41.9646 42.072ZM53.3456 55V39.128H56.9616L57.2816 41.816C57.7723 40.8773 58.4763 40.1307 59.3936 39.576C60.3323 39.0213 61.431 38.744 62.6896 38.744C64.6523 38.744 66.1776 39.3627 67.2656 40.6C68.3536 41.8373 68.8976 43.6507 68.8976 46.04V55H64.8016V46.424C64.8016 45.0587 64.5243 44.0133 63.9696 43.288C63.415 42.5627 62.551 42.2 61.3776 42.2C60.2256 42.2 59.2763 42.6053 58.5296 43.416C57.8043 44.2267 57.4416 45.3573 57.4416 46.808V55H53.3456ZM78.2864 55.384C76.921 55.384 75.801 55.1707 74.9264 54.744C74.0517 54.296 73.401 53.7093 72.9744 52.984C72.5477 52.2587 72.3344 51.4587 72.3344 50.584C72.3344 49.112 72.9104 47.9173 74.0624 47C75.2144 46.0827 76.9424 45.624 79.2464 45.624H83.2784V45.24C83.2784 44.152 82.969 43.352 82.3504 42.84C81.7317 42.328 80.9637 42.072 80.0464 42.072C79.2144 42.072 78.489 42.2747 77.8704 42.68C77.2517 43.064 76.8677 43.64 76.7184 44.408H72.7184C72.825 43.256 73.209 42.2533 73.8704 41.4C74.553 40.5467 75.4277 39.896 76.4944 39.448C77.561 38.9787 78.7557 38.744 80.0784 38.744C82.3397 38.744 84.121 39.3093 85.4224 40.44C86.7237 41.5707 87.3744 43.1707 87.3744 45.24V55H83.8864L83.5024 52.44C83.033 53.2933 82.3717 53.9973 81.5184 54.552C80.6864 55.1067 79.609 55.384 78.2864 55.384ZM79.2144 52.184C80.3877 52.184 81.2944 51.8 81.9344 51.032C82.5957 50.264 83.0117 49.3147 83.1824 48.184H79.6944C78.6064 48.184 77.8277 48.3867 77.3584 48.792C76.889 49.176 76.6544 49.656 76.6544 50.232C76.6544 50.8507 76.889 51.3307 77.3584 51.672C77.8277 52.0133 78.4464 52.184 79.2144 52.184ZM91.2831 55V31.96H95.3791V55H91.2831ZM101.772 36.664C101.026 36.664 100.407 36.44 99.9164 35.992C99.447 35.544 99.2124 34.9787 99.2124 34.296C99.2124 33.6133 99.447 33.0587 99.9164 32.632C100.407 32.184 101.026 31.96 101.772 31.96C102.519 31.96 103.127 32.184 103.596 32.632C104.087 33.0587 104.332 33.6133 104.332 34.296C104.332 34.9787 104.087 35.544 103.596 35.992C103.127 36.44 102.519 36.664 101.772 36.664ZM99.7244 55V39.128H103.82V55H99.7244ZM30.1891 80L38.3811 57.6H42.9891L51.1811 80H46.8291L45.0371 74.816H36.3011L34.4771 80H30.1891ZM37.4211 71.616H43.9171L40.6531 62.304L37.4211 71.616ZM53.9706 80V56.96H58.0666V70.56L63.6986 64.128H68.5626L62.0666 71.36L69.6186 80H64.4986L58.0666 72.032V80H53.9706ZM78.1101 80.384C76.1261 80.384 74.5901 79.7653 73.5021 78.528C72.4355 77.2907 71.9021 75.4773 71.9021 73.088V64.128H75.9661V72.704C75.9661 74.0693 76.2435 75.1147 76.7981 75.84C77.3528 76.5653 78.2275 76.928 79.4221 76.928C80.5528 76.928 81.4808 76.5227 82.2061 75.712C82.9528 74.9013 83.3261 73.7707 83.3261 72.32V64.128H87.4221V80H83.8061L83.4861 77.312C82.9955 78.2507 82.2808 78.9973 81.3421 79.552C80.4248 80.1067 79.3475 80.384 78.1101 80.384Z" fill="#C73661"/>
</svg>
